<svg width="28" height="27" viewBox="0 0 28 27" fill="none" xmlns="http://www.w3.org/2000/svg">
<path d="M24.6667 26.3333H3.33341C2.62617 26.3333 1.94789 26.0524 1.4478 25.5523C0.9477 25.0522 0.666748 24.3739 0.666748 23.6667V9.06534C0.688913 8.6246 0.818454 8.19595 1.0441 7.8167C1.26974 7.43745 1.58465 7.1191 1.96141 6.88934L12.6281 0.489337C13.0424 0.240924 13.5164 0.109711 13.9994 0.109711C14.4825 0.109711 14.9565 0.240924 15.3707 0.489337L26.0374 6.88934C26.8387 7.37334 27.3307 8.24 27.3334 9.176V23.6667C27.3334 24.3739 27.0525 25.0522 26.5524 25.5523C26.0523 26.0524 25.374 26.3333 24.6667 26.3333ZM3.33341 10.1573V23.6667H24.6667V10.1573L14.0001 17.268L3.33341 10.1573ZM14.0001 2.776L5.08808 8.12267L14.0001 14.064L22.9107 8.12267L14.0001 2.776V2.776Z" fill="white"/>
</svg>
